<?xml version="1.0" encoding="utf-8" standalone="no"?>
<!DOCTYPE svg PUBLIC "-//W3C//DTD SVG 1.1//EN"
  "http://www.w3.org/Graphics/SVG/1.1/DTD/svg11.dtd">
<svg xmlns:xlink="http://www.w3.org/1999/xlink" width="576pt" height="432pt" viewBox="0 0 576 432" xmlns="http://www.w3.org/2000/svg" version="1.1">
 <metadata>
  <rdf:RDF xmlns:dc="http://purl.org/dc/elements/1.1/" xmlns:cc="http://creativecommons.org/ns#" xmlns:rdf="http://www.w3.org/1999/02/22-rdf-syntax-ns#">
   <cc:Work>
    <dc:type rdf:resource="http://purl.org/dc/dcmitype/StillImage"/>
    <dc:date>2024-03-19T15:59:00.861695</dc:date>
    <dc:format>image/svg+xml</dc:format>
    <dc:creator>
     <cc:Agent>
      <dc:title>Matplotlib v3.8.0, https://matplotlib.org/</dc:title>
     </cc:Agent>
    </dc:creator>
   </cc:Work>
  </rdf:RDF>
 </metadata>
 <defs>
  <style type="text/css">*{stroke-linejoin: round; stroke-linecap: butt}</style>
 </defs>
 <g id="figure_1">
  <g id="patch_1">
   <path d="M 0 432 
L 576 432 
L 576 0 
L 0 0 
z
" style="fill: #ffffff"/>
  </g>
  <g id="axes_1">
   <g id="patch_2">
    <path d="M 72 384.48 
L 518.4 384.48 
L 518.4 51.84 
L 72 51.84 
z
" style="fill: #ffffff"/>
   </g>
   <g id="matplotlib.axis_1">
    <g id="xtick_1">
     <g id="line2d_1">
      <path d="M 84.008905 384.48 
L 84.008905 51.84 
" clip-path="url(#p8903bf59f7)" style="fill: none; stroke: #b0b0b0; stroke-width: 0.8; stroke-linecap: square"/>
     </g>
     <g id="line2d_2">
      <defs>
       <path id="mf7f089ce8a" d="M 0 0 
L 0 3.5 
" style="stroke: #000000; stroke-width: 0.8"/>
      </defs>
      <g>
       <use xlink:href="#mf7f089ce8a" x="84.008905" y="384.48" style="stroke: #000000; stroke-width: 0.8"/>
      </g>
     </g>
     <g id="text_1">
      <!-- 0 -->
      <g transform="translate(80.827655 399.078438) scale(0.1 -0.1)">
       <defs>
        <path id="DejaVuSans-30" d="M 2034 4250 
Q 1547 4250 1301 3770 
Q 1056 3291 1056 2328 
Q 1056 1369 1301 889 
Q 1547 409 2034 409 
Q 2525 409 2770 889 
Q 3016 1369 3016 2328 
Q 3016 3291 2770 3770 
Q 2525 4250 2034 4250 
z
M 2034 4750 
Q 2819 4750 3233 4129 
Q 3647 3509 3647 2328 
Q 3647 1150 3233 529 
Q 2819 -91 2034 -91 
Q 1250 -91 836 529 
Q 422 1150 422 2328 
Q 422 3509 836 4129 
Q 1250 4750 2034 4750 
z
" transform="scale(0.015625)"/>
       </defs>
       <use xlink:href="#DejaVuSans-30"/>
      </g>
     </g>
    </g>
    <g id="xtick_2">
     <g id="line2d_3">
      <path d="M 166.828942 384.48 
L 166.828942 51.84 
" clip-path="url(#p8903bf59f7)" style="fill: none; stroke: #b0b0b0; stroke-width: 0.8; stroke-linecap: square"/>
     </g>
     <g id="line2d_4">
      <g>
       <use xlink:href="#mf7f089ce8a" x="166.828942" y="384.48" style="stroke: #000000; stroke-width: 0.8"/>
      </g>
     </g>
     <g id="text_2">
      <!-- 2 -->
      <g transform="translate(163.647692 399.078438) scale(0.1 -0.1)">
       <defs>
        <path id="DejaVuSans-32" d="M 1228 531 
L 3431 531 
L 3431 0 
L 469 0 
L 469 531 
Q 828 903 1448 1529 
Q 2069 2156 2228 2338 
Q 2531 2678 2651 2914 
Q 2772 3150 2772 3378 
Q 2772 3750 2511 3984 
Q 2250 4219 1831 4219 
Q 1534 4219 1204 4116 
Q 875 4013 500 3803 
L 500 4441 
Q 881 4594 1212 4672 
Q 1544 4750 1819 4750 
Q 2544 4750 2975 4387 
Q 3406 4025 3406 3419 
Q 3406 3131 3298 2873 
Q 3191 2616 2906 2266 
Q 2828 2175 2409 1742 
Q 1991 1309 1228 531 
z
" transform="scale(0.015625)"/>
       </defs>
       <use xlink:href="#DejaVuSans-32"/>
      </g>
     </g>
    </g>
    <g id="xtick_3">
     <g id="line2d_5">
      <path d="M 249.64898 384.48 
L 249.64898 51.84 
" clip-path="url(#p8903bf59f7)" style="fill: none; stroke: #b0b0b0; stroke-width: 0.8; stroke-linecap: square"/>
     </g>
     <g id="line2d_6">
      <g>
       <use xlink:href="#mf7f089ce8a" x="249.64898" y="384.48" style="stroke: #000000; stroke-width: 0.8"/>
      </g>
     </g>
     <g id="text_3">
      <!-- 4 -->
      <g transform="translate(246.46773 399.078438) scale(0.1 -0.1)">
       <defs>
        <path id="DejaVuSans-34" d="M 2419 4116 
L 825 1625 
L 2419 1625 
L 2419 4116 
z
M 2253 4666 
L 3047 4666 
L 3047 1625 
L 3713 1625 
L 3713 1100 
L 3047 1100 
L 3047 0 
L 2419 0 
L 2419 1100 
L 313 1100 
L 313 1709 
L 2253 4666 
z
" transform="scale(0.015625)"/>
       </defs>
       <use xlink:href="#DejaVuSans-34"/>
      </g>
     </g>
    </g>
    <g id="xtick_4">
     <g id="line2d_7">
      <path d="M 332.469017 384.48 
L 332.469017 51.84 
" clip-path="url(#p8903bf59f7)" style="fill: none; stroke: #b0b0b0; stroke-width: 0.8; stroke-linecap: square"/>
     </g>
     <g id="line2d_8">
      <g>
       <use xlink:href="#mf7f089ce8a" x="332.469017" y="384.48" style="stroke: #000000; stroke-width: 0.8"/>
      </g>
     </g>
     <g id="text_4">
      <!-- 6 -->
      <g transform="translate(329.287767 399.078438) scale(0.1 -0.1)">
       <defs>
        <path id="DejaVuSans-36" d="M 2113 2584 
Q 1688 2584 1439 2293 
Q 1191 2003 1191 1497 
Q 1191 994 1439 701 
Q 1688 409 2113 409 
Q 2538 409 2786 701 
Q 3034 994 3034 1497 
Q 3034 2003 2786 2293 
Q 2538 2584 2113 2584 
z
M 3366 4563 
L 3366 3988 
Q 3128 4100 2886 4159 
Q 2644 4219 2406 4219 
Q 1781 4219 1451 3797 
Q 1122 3375 1075 2522 
Q 1259 2794 1537 2939 
Q 1816 3084 2150 3084 
Q 2853 3084 3261 2657 
Q 3669 2231 3669 1497 
Q 3669 778 3244 343 
Q 2819 -91 2113 -91 
Q 1303 -91 875 529 
Q 447 1150 447 2328 
Q 447 3434 972 4092 
Q 1497 4750 2381 4750 
Q 2619 4750 2861 4703 
Q 3103 4656 3366 4563 
z
" transform="scale(0.015625)"/>
       </defs>
       <use xlink:href="#DejaVuSans-36"/>
      </g>
     </g>
    </g>
    <g id="xtick_5">
     <g id="line2d_9">
      <path d="M 415.289054 384.48 
L 415.289054 51.84 
" clip-path="url(#p8903bf59f7)" style="fill: none; stroke: #b0b0b0; stroke-width: 0.8; stroke-linecap: square"/>
     </g>
     <g id="line2d_10">
      <g>
       <use xlink:href="#mf7f089ce8a" x="415.289054" y="384.48" style="stroke: #000000; stroke-width: 0.8"/>
      </g>
     </g>
     <g id="text_5">
      <!-- 8 -->
      <g transform="translate(412.107804 399.078438) scale(0.1 -0.1)">
       <defs>
        <path id="DejaVuSans-38" d="M 2034 2216 
Q 1584 2216 1326 1975 
Q 1069 1734 1069 1313 
Q 1069 891 1326 650 
Q 1584 409 2034 409 
Q 2484 409 2743 651 
Q 3003 894 3003 1313 
Q 3003 1734 2745 1975 
Q 2488 2216 2034 2216 
z
M 1403 2484 
Q 997 2584 770 2862 
Q 544 3141 544 3541 
Q 544 4100 942 4425 
Q 1341 4750 2034 4750 
Q 2731 4750 3128 4425 
Q 3525 4100 3525 3541 
Q 3525 3141 3298 2862 
Q 3072 2584 2669 2484 
Q 3125 2378 3379 2068 
Q 3634 1759 3634 1313 
Q 3634 634 3220 271 
Q 2806 -91 2034 -91 
Q 1263 -91 848 271 
Q 434 634 434 1313 
Q 434 1759 690 2068 
Q 947 2378 1403 2484 
z
M 1172 3481 
Q 1172 3119 1398 2916 
Q 1625 2713 2034 2713 
Q 2441 2713 2670 2916 
Q 2900 3119 2900 3481 
Q 2900 3844 2670 4047 
Q 2441 4250 2034 4250 
Q 1625 4250 1398 4047 
Q 1172 3844 1172 3481 
z
" transform="scale(0.015625)"/>
       </defs>
       <use xlink:href="#DejaVuSans-38"/>
      </g>
     </g>
    </g>
    <g id="xtick_6">
     <g id="line2d_11">
      <path d="M 498.109091 384.48 
L 498.109091 51.84 
" clip-path="url(#p8903bf59f7)" style="fill: none; stroke: #b0b0b0; stroke-width: 0.8; stroke-linecap: square"/>
     </g>
     <g id="line2d_12">
      <g>
       <use xlink:href="#mf7f089ce8a" x="498.109091" y="384.48" style="stroke: #000000; stroke-width: 0.8"/>
      </g>
     </g>
     <g id="text_6">
      <!-- 10 -->
      <g transform="translate(491.746591 399.078438) scale(0.1 -0.1)">
       <defs>
        <path id="DejaVuSans-31" d="M 794 531 
L 1825 531 
L 1825 4091 
L 703 3866 
L 703 4441 
L 1819 4666 
L 2450 4666 
L 2450 531 
L 3481 531 
L 3481 0 
L 794 0 
L 794 531 
z
" transform="scale(0.015625)"/>
       </defs>
       <use xlink:href="#DejaVuSans-31"/>
       <use xlink:href="#DejaVuSans-30" x="63.623047"/>
      </g>
     </g>
    </g>
   </g>
   <g id="matplotlib.axis_2">
    <g id="ytick_1">
     <g id="line2d_13">
      <path d="M 72 369.364608 
L 518.4 369.364608 
" clip-path="url(#p8903bf59f7)" style="fill: none; stroke: #b0b0b0; stroke-width: 0.8; stroke-linecap: square"/>
     </g>
     <g id="line2d_14">
      <defs>
       <path id="mb54edd09bb" d="M 0 0 
L -3.5 0 
" style="stroke: #000000; stroke-width: 0.8"/>
      </defs>
      <g>
       <use xlink:href="#mb54edd09bb" x="72" y="369.364608" style="stroke: #000000; stroke-width: 0.8"/>
      </g>
     </g>
     <g id="text_7">
      <!-- 0.0 -->
      <g transform="translate(49.096875 373.163827) scale(0.1 -0.1)">
       <defs>
        <path id="DejaVuSans-2e" d="M 684 794 
L 1344 794 
L 1344 0 
L 684 0 
L 684 794 
z
" transform="scale(0.015625)"/>
       </defs>
       <use xlink:href="#DejaVuSans-30"/>
       <use xlink:href="#DejaVuSans-2e" x="63.623047"/>
       <use xlink:href="#DejaVuSans-30" x="95.410156"/>
      </g>
     </g>
    </g>
    <g id="ytick_2">
     <g id="line2d_15">
      <path d="M 72 331.899863 
L 518.4 331.899863 
" clip-path="url(#p8903bf59f7)" style="fill: none; stroke: #b0b0b0; stroke-width: 0.8; stroke-linecap: square"/>
     </g>
     <g id="line2d_16">
      <g>
       <use xlink:href="#mb54edd09bb" x="72" y="331.899863" style="stroke: #000000; stroke-width: 0.8"/>
      </g>
     </g>
     <g id="text_8">
      <!-- 0.1 -->
      <g transform="translate(49.096875 335.699081) scale(0.1 -0.1)">
       <use xlink:href="#DejaVuSans-30"/>
       <use xlink:href="#DejaVuSans-2e" x="63.623047"/>
       <use xlink:href="#DejaVuSans-31" x="95.410156"/>
      </g>
     </g>
    </g>
    <g id="ytick_3">
     <g id="line2d_17">
      <path d="M 72 294.435117 
L 518.4 294.435117 
" clip-path="url(#p8903bf59f7)" style="fill: none; stroke: #b0b0b0; stroke-width: 0.8; stroke-linecap: square"/>
     </g>
     <g id="line2d_18">
      <g>
       <use xlink:href="#mb54edd09bb" x="72" y="294.435117" style="stroke: #000000; stroke-width: 0.8"/>
      </g>
     </g>
     <g id="text_9">
      <!-- 0.2 -->
      <g transform="translate(49.096875 298.234336) scale(0.1 -0.1)">
       <use xlink:href="#DejaVuSans-30"/>
       <use xlink:href="#DejaVuSans-2e" x="63.623047"/>
       <use xlink:href="#DejaVuSans-32" x="95.410156"/>
      </g>
     </g>
    </g>
    <g id="ytick_4">
     <g id="line2d_19">
      <path d="M 72 256.970372 
L 518.4 256.970372 
" clip-path="url(#p8903bf59f7)" style="fill: none; stroke: #b0b0b0; stroke-width: 0.8; stroke-linecap: square"/>
     </g>
     <g id="line2d_20">
      <g>
       <use xlink:href="#mb54edd09bb" x="72" y="256.970372" style="stroke: #000000; stroke-width: 0.8"/>
      </g>
     </g>
     <g id="text_10">
      <!-- 0.3 -->
      <g transform="translate(49.096875 260.769591) scale(0.1 -0.1)">
       <defs>
        <path id="DejaVuSans-33" d="M 2597 2516 
Q 3050 2419 3304 2112 
Q 3559 1806 3559 1356 
Q 3559 666 3084 287 
Q 2609 -91 1734 -91 
Q 1441 -91 1130 -33 
Q 819 25 488 141 
L 488 750 
Q 750 597 1062 519 
Q 1375 441 1716 441 
Q 2309 441 2620 675 
Q 2931 909 2931 1356 
Q 2931 1769 2642 2001 
Q 2353 2234 1838 2234 
L 1294 2234 
L 1294 2753 
L 1863 2753 
Q 2328 2753 2575 2939 
Q 2822 3125 2822 3475 
Q 2822 3834 2567 4026 
Q 2313 4219 1838 4219 
Q 1578 4219 1281 4162 
Q 984 4106 628 3988 
L 628 4550 
Q 988 4650 1302 4700 
Q 1616 4750 1894 4750 
Q 2613 4750 3031 4423 
Q 3450 4097 3450 3541 
Q 3450 3153 3228 2886 
Q 3006 2619 2597 2516 
z
" transform="scale(0.015625)"/>
       </defs>
       <use xlink:href="#DejaVuSans-30"/>
       <use xlink:href="#DejaVuSans-2e" x="63.623047"/>
       <use xlink:href="#DejaVuSans-33" x="95.410156"/>
      </g>
     </g>
    </g>
    <g id="ytick_5">
     <g id="line2d_21">
      <path d="M 72 219.505627 
L 518.4 219.505627 
" clip-path="url(#p8903bf59f7)" style="fill: none; stroke: #b0b0b0; stroke-width: 0.8; stroke-linecap: square"/>
     </g>
     <g id="line2d_22">
      <g>
       <use xlink:href="#mb54edd09bb" x="72" y="219.505627" style="stroke: #000000; stroke-width: 0.8"/>
      </g>
     </g>
     <g id="text_11">
      <!-- 0.4 -->
      <g transform="translate(49.096875 223.304845) scale(0.1 -0.1)">
       <use xlink:href="#DejaVuSans-30"/>
       <use xlink:href="#DejaVuSans-2e" x="63.623047"/>
       <use xlink:href="#DejaVuSans-34" x="95.410156"/>
      </g>
     </g>
    </g>
    <g id="ytick_6">
     <g id="line2d_23">
      <path d="M 72 182.040881 
L 518.4 182.040881 
" clip-path="url(#p8903bf59f7)" style="fill: none; stroke: #b0b0b0; stroke-width: 0.8; stroke-linecap: square"/>
     </g>
     <g id="line2d_24">
      <g>
       <use xlink:href="#mb54edd09bb" x="72" y="182.040881" style="stroke: #000000; stroke-width: 0.8"/>
      </g>
     </g>
     <g id="text_12">
      <!-- 0.5 -->
      <g transform="translate(49.096875 185.8401) scale(0.1 -0.1)">
       <defs>
        <path id="DejaVuSans-35" d="M 691 4666 
L 3169 4666 
L 3169 4134 
L 1269 4134 
L 1269 2991 
Q 1406 3038 1543 3061 
Q 1681 3084 1819 3084 
Q 2600 3084 3056 2656 
Q 3513 2228 3513 1497 
Q 3513 744 3044 326 
Q 2575 -91 1722 -91 
Q 1428 -91 1123 -41 
Q 819 9 494 109 
L 494 744 
Q 775 591 1075 516 
Q 1375 441 1709 441 
Q 2250 441 2565 725 
Q 2881 1009 2881 1497 
Q 2881 1984 2565 2268 
Q 2250 2553 1709 2553 
Q 1456 2553 1204 2497 
Q 953 2441 691 2322 
L 691 4666 
z
" transform="scale(0.015625)"/>
       </defs>
       <use xlink:href="#DejaVuSans-30"/>
       <use xlink:href="#DejaVuSans-2e" x="63.623047"/>
       <use xlink:href="#DejaVuSans-35" x="95.410156"/>
      </g>
     </g>
    </g>
    <g id="ytick_7">
     <g id="line2d_25">
      <path d="M 72 144.576136 
L 518.4 144.576136 
" clip-path="url(#p8903bf59f7)" style="fill: none; stroke: #b0b0b0; stroke-width: 0.8; stroke-linecap: square"/>
     </g>
     <g id="line2d_26">
      <g>
       <use xlink:href="#mb54edd09bb" x="72" y="144.576136" style="stroke: #000000; stroke-width: 0.8"/>
      </g>
     </g>
     <g id="text_13">
      <!-- 0.6 -->
      <g transform="translate(49.096875 148.375355) scale(0.1 -0.1)">
       <use xlink:href="#DejaVuSans-30"/>
       <use xlink:href="#DejaVuSans-2e" x="63.623047"/>
       <use xlink:href="#DejaVuSans-36" x="95.410156"/>
      </g>
     </g>
    </g>
    <g id="ytick_8">
     <g id="line2d_27">
      <path d="M 72 107.111391 
L 518.4 107.111391 
" clip-path="url(#p8903bf59f7)" style="fill: none; stroke: #b0b0b0; stroke-width: 0.8; stroke-linecap: square"/>
     </g>
     <g id="line2d_28">
      <g>
       <use xlink:href="#mb54edd09bb" x="72" y="107.111391" style="stroke: #000000; stroke-width: 0.8"/>
      </g>
     </g>
     <g id="text_14">
      <!-- 0.7 -->
      <g transform="translate(49.096875 110.910609) scale(0.1 -0.1)">
       <defs>
        <path id="DejaVuSans-37" d="M 525 4666 
L 3525 4666 
L 3525 4397 
L 1831 0 
L 1172 0 
L 2766 4134 
L 525 4134 
L 525 4666 
z
" transform="scale(0.015625)"/>
       </defs>
       <use xlink:href="#DejaVuSans-30"/>
       <use xlink:href="#DejaVuSans-2e" x="63.623047"/>
       <use xlink:href="#DejaVuSans-37" x="95.410156"/>
      </g>
     </g>
    </g>
    <g id="ytick_9">
     <g id="line2d_29">
      <path d="M 72 69.646645 
L 518.4 69.646645 
" clip-path="url(#p8903bf59f7)" style="fill: none; stroke: #b0b0b0; stroke-width: 0.8; stroke-linecap: square"/>
     </g>
     <g id="line2d_30">
      <g>
       <use xlink:href="#mb54edd09bb" x="72" y="69.646645" style="stroke: #000000; stroke-width: 0.8"/>
      </g>
     </g>
     <g id="text_15">
      <!-- 0.8 -->
      <g transform="translate(49.096875 73.445864) scale(0.1 -0.1)">
       <use xlink:href="#DejaVuSans-30"/>
       <use xlink:href="#DejaVuSans-2e" x="63.623047"/>
       <use xlink:href="#DejaVuSans-38" x="95.410156"/>
      </g>
     </g>
    </g>
   </g>
   <g id="line2d_31">
    <path d="M 92.290909 66.96 
L 93.508485 91.124877 
L 94.807233 112.453625 
L 96.187153 131.443784 
L 97.648245 148.479483 
L 99.190508 163.862181 
L 100.813943 177.831879 
L 102.51855 190.582099 
L 104.304329 202.270673 
L 106.171279 213.027659 
L 108.119401 222.961239 
L 110.148695 232.162174 
L 112.25916 240.707216 
L 114.450798 248.661758 
L 116.723607 256.081897 
L 119.077588 263.016074 
L 121.51274 269.506379 
L 124.029065 275.589601 
L 126.626561 281.298075 
L 129.345815 286.737908 
L 132.14624 291.843428 
L 135.027837 296.639379 
L 138.031192 301.206864 
L 141.115719 305.496658 
L 144.322003 309.577451 
L 147.650045 313.45415 
L 151.099845 317.132216 
L 154.671402 320.617516 
L 158.405302 323.950865 
L 162.301547 327.129703 
L 166.360134 330.153024 
L 170.581065 333.021133 
L 175.004926 335.759416 
L 179.672302 338.38544 
L 184.583193 340.890688 
L 189.737599 343.269117 
L 195.176107 345.532913 
L 200.939301 347.689647 
L 207.067769 349.743256 
L 213.561509 351.68347 
L 220.501694 353.523511 
L 227.928909 355.260928 
L 235.924327 356.900378 
L 244.528533 358.435536 
L 253.863285 359.872578 
L 264.05034 361.212085 
L 275.17087 362.446883 
L 287.427805 363.58105 
L 301.064659 364.615679 
L 316.365535 365.548958 
L 333.73629 366.380437 
L 353.745127 367.109517 
L 377.203764 367.735153 
L 405.451534 368.258132 
L 440.639489 368.677753 
L 486.947975 368.995188 
L 498.109091 369.046144 
L 498.109091 369.046144 
" clip-path="url(#p8903bf59f7)" style="fill: none; stroke: #1f77b4; stroke-width: 1.5; stroke-linecap: square"/>
   </g>
   <g id="line2d_32">
    <path d="M 92.290909 199.867091 
L 96.877113 208.99796 
L 101.463317 217.636948 
L 106.090107 225.880883 
L 110.757483 233.743371 
L 115.465445 241.237821 
L 120.173406 248.318127 
L 124.921954 255.063201 
L 129.751673 261.538152 
L 134.621979 267.696144 
L 139.53287 273.549418 
L 144.524932 279.154164 
L 149.557581 284.47267 
L 154.671402 289.555873 
L 159.866394 294.408202 
L 165.142558 299.034477 
L 170.54048 303.472163 
L 176.019573 307.690316 
L 181.620424 311.723245 
L 187.343032 315.571599 
L 193.227985 319.261332 
L 199.27528 322.789367 
L 205.484919 326.153759 
L 211.856902 329.353628 
L 218.431814 332.407205 
L 225.250241 335.327963 
L 232.312184 338.109925 
L 239.658228 340.762788 
L 247.288372 343.280112 
L 255.243204 345.668957 
L 263.563309 347.933758 
L 272.289273 350.076843 
L 281.461681 352.098943 
L 291.161705 354.007197 
L 301.429932 355.797942 
L 312.347533 357.47348 
L 323.99568 359.033614 
L 336.49613 360.48095 
L 349.970641 361.814838 
L 364.622142 363.038979 
L 380.653564 364.15221 
L 398.389592 365.157024 
L 418.1955 366.05197 
L 440.639489 366.838329 
L 466.492693 367.515716 
L 496.972686 368.084993 
L 498.109091 368.102431 
L 498.109091 368.102431 
" clip-path="url(#p8903bf59f7)" style="fill: none; stroke: #ff7f0e; stroke-width: 1.5; stroke-linecap: square"/>
   </g>
   <g id="line2d_33">
    <path d="M 92.290909 308.883686 
L 93.873758 304.606254 
L 95.537779 300.749763 
L 97.242386 297.3496 
L 99.028165 294.280867 
L 100.854529 291.581008 
L 102.721479 289.211331 
L 104.629016 287.140872 
L 106.617724 285.309871 
L 108.647017 283.742544 
L 110.757483 282.395423 
L 112.908534 281.283772 
L 115.140758 280.376419 
L 117.494739 279.659627 
L 119.970477 279.140421 
L 122.567973 278.823445 
L 125.327813 278.711002 
L 128.290582 278.81503 
L 131.496866 279.15497 
L 134.946666 279.747499 
L 138.721152 280.624388 
L 142.901497 281.828441 
L 147.568873 283.409026 
L 152.885623 285.449855 
L 159.135848 288.095626 
L 166.847165 291.61368 
L 177.683594 296.824733 
L 206.783667 310.922714 
L 217.944784 316.019922 
L 228.21301 320.46711 
L 238.034793 324.480676 
L 247.694231 328.188393 
L 257.272498 331.627521 
L 266.891351 334.845381 
L 276.631961 337.868924 
L 286.534915 340.709116 
L 296.640799 343.375696 
L 307.030783 345.886436 
L 317.745455 348.245872 
L 328.865985 350.465264 
L 340.43296 352.545054 
L 352.527551 354.491549 
L 365.190344 356.302754 
L 378.583684 357.991561 
L 392.788741 359.555838 
L 407.927273 360.996564 
L 424.161623 362.315845 
L 441.735308 363.518081 
L 460.932428 364.604875 
L 482.07767 365.575361 
L 498.109091 366.179967 
L 498.109091 366.179967 
" clip-path="url(#p8903bf59f7)" style="fill: none; stroke: #2ca02c; stroke-width: 1.5; stroke-linecap: square"/>
   </g>
   <g id="line2d_34">
    <path d="M 92.290909 352.414856 
L 95.456607 346.814645 
L 98.622306 341.658315 
L 101.788004 336.920452 
L 104.953703 332.57692 
L 108.119401 328.604804 
L 111.285099 324.982358 
L 114.491384 321.648765 
L 117.697668 318.632353 
L 120.944538 315.881258 
L 124.231994 313.38761 
L 127.560036 311.143304 
L 130.928664 309.140034 
L 134.337877 307.36932 
L 137.828263 305.805744 
L 141.39982 304.448554 
L 145.093135 303.28447 
L 148.908207 302.318085 
L 152.845037 301.552286 
L 156.944211 300.983745 
L 161.205728 300.618279 
L 165.670174 300.458869 
L 170.378136 300.51356 
L 175.410785 300.797432 
L 180.76812 301.325205 
L 186.531315 302.11872 
L 192.822126 303.212966 
L 199.762311 304.650411 
L 207.554799 306.496326 
L 216.60545 308.875751 
L 227.685394 312.028594 
L 243.554472 316.797785 
L 278.052467 327.211997 
L 293.312757 331.54822 
L 307.152541 335.252087 
L 320.424122 338.574531 
L 333.411603 341.597394 
L 346.358498 344.383011 
L 359.42715 346.966947 
L 372.698732 349.363803 
L 386.295 351.592555 
L 400.297128 353.661789 
L 414.826872 355.583246 
L 430.00599 357.364678 
L 445.956239 359.010535 
L 462.799378 360.522776 
L 480.738336 361.907529 
L 498.109091 363.053721 
L 498.109091 363.053721 
" clip-path="url(#p8903bf59f7)" style="fill: none; stroke: #d62728; stroke-width: 1.5; stroke-linecap: square"/>
   </g>
   <g id="line2d_35">
    <path d="M 92.290909 365.332547 
L 95.700123 362.874734 
L 100.326913 359.244498 
L 108.931119 352.148086 
L 117.860011 344.896342 
L 124.069651 340.139231 
L 129.629916 336.154382 
L 134.865494 332.670967 
L 139.938728 329.560129 
L 144.890205 326.782424 
L 149.801096 324.281724 
L 154.671402 322.050075 
L 159.541707 320.061373 
L 164.452598 318.295517 
L 169.404075 316.750118 
L 174.436724 315.411295 
L 179.59113 314.270914 
L 184.867294 313.332508 
L 190.305801 312.593011 
L 195.906652 312.056995 
L 201.710433 311.725215 
L 207.798314 311.601886 
L 214.170297 311.696982 
L 220.907553 312.021862 
L 228.091253 312.593707 
L 235.802569 313.433525 
L 244.203846 314.5759 
L 253.498012 316.068745 
L 264.05034 317.995165 
L 276.510204 320.503962 
L 292.703969 324.006016 
L 356.87024 338.11626 
L 374.119237 341.547756 
L 390.43476 344.567821 
L 406.344424 347.287513 
L 422.213501 349.774621 
L 438.204337 352.055446 
L 454.519859 354.157127 
L 471.281826 356.091139 
L 488.652582 357.870413 
L 498.109091 358.749139 
L 498.109091 358.749139 
" clip-path="url(#p8903bf59f7)" style="fill: none; stroke: #9467bd; stroke-width: 1.5; stroke-linecap: square"/>
   </g>
   <g id="line2d_36">
    <path d="M 92.290909 368.51712 
L 95.740709 367.733428 
L 99.474609 366.654842 
L 103.614369 365.222338 
L 108.241159 363.380359 
L 113.598494 361.000744 
L 120.132821 357.844573 
L 129.548744 353.023873 
L 148.137076 343.475791 
L 156.538352 339.442765 
L 163.965567 336.119952 
L 170.946338 333.238585 
L 177.643008 330.713814 
L 184.177334 328.486846 
L 190.630489 326.521953 
L 197.043057 324.801134 
L 203.496211 323.300363 
L 209.989952 322.019104 
L 216.564864 320.948588 
L 223.261533 320.083421 
L 230.120547 319.421395 
L 237.182489 318.963169 
L 244.528533 318.71104 
L 252.158678 318.673111 
L 260.154095 318.85692 
L 268.636544 319.277173 
L 277.646608 319.948569 
L 287.387219 320.900611 
L 298.061304 322.17167 
L 309.993552 323.821363 
L 323.873922 325.972218 
L 341.163505 328.88795 
L 369.127175 333.864529 
L 404.031029 340.021289 
L 425.86623 343.640587 
L 445.509795 346.673263 
L 464.301056 349.35042 
L 482.808215 351.762545 
L 498.109091 353.587391 
L 498.109091 353.587391 
" clip-path="url(#p8903bf59f7)" style="fill: none; stroke: #8c564b; stroke-width: 1.5; stroke-linecap: square"/>
   </g>
   <g id="line2d_37">
    <path d="M 92.290909 369.203326 
L 97.567073 368.845708 
L 102.721479 368.273454 
L 107.957058 367.466688 
L 113.354979 366.408862 
L 119.077588 365.058526 
L 125.246641 363.371236 
L 132.105654 361.259553 
L 140.060486 358.569611 
L 150.166369 354.903338 
L 186.571901 341.482121 
L 196.068996 338.341808 
L 204.794959 335.687246 
L 213.115064 333.386839 
L 221.191654 331.38388 
L 229.1059 329.649148 
L 236.97956 328.150519 
L 244.85322 326.878053 
L 252.808052 325.818531 
L 260.844055 324.972534 
L 269.042402 324.332832 
L 277.484265 323.898307 
L 286.210228 323.673894 
L 295.260879 323.665282 
L 304.757974 323.881108 
L 314.782686 324.3343 
L 325.456771 325.042127 
L 336.98316 326.032085 
L 349.68654 327.350394 
L 364.05394 329.070811 
L 381.059422 331.339508 
L 403.462826 334.568119 
L 477.126193 345.346334 
L 498.109091 348.13367 
L 498.109091 348.13367 
" clip-path="url(#p8903bf59f7)" style="fill: none; stroke: #e377c2; stroke-width: 1.5; stroke-linecap: square"/>
   </g>
   <g id="line2d_38">
    <path d="M 92.290909 369.336358 
L 101.219802 369.136996 
L 108.728189 368.748695 
L 115.830718 368.158624 
L 122.811488 367.354854 
L 129.873431 366.316993 
L 137.178889 365.017301 
L 144.930791 363.409481 
L 153.372654 361.426793 
L 162.910335 358.952374 
L 174.639653 355.668114 
L 195.419622 349.56772 
L 212.871549 344.551444 
L 225.087898 341.269702 
L 235.843155 338.60711 
L 245.867867 336.351677 
L 255.48672 334.413738 
L 264.862057 332.750394 
L 274.115637 331.333435 
L 283.369217 330.141761 
L 292.663383 329.169882 
L 302.03872 328.413006 
L 311.616987 327.863524 
L 321.438769 327.523937 
L 331.585239 327.39706 
L 342.137566 327.489084 
L 353.217511 327.81021 
L 364.946829 328.374912 
L 377.528451 329.205992 
L 391.246477 330.338469 
L 406.547353 331.829139 
L 424.323967 333.79138 
L 446.646199 336.491324 
L 485.892742 341.508208 
L 498.109091 343.069247 
L 498.109091 343.069247 
" clip-path="url(#p8903bf59f7)" style="fill: none; stroke: #7f7f7f; stroke-width: 1.5; stroke-linecap: square"/>
   </g>
   <g id="line2d_39">
    <path d="M 92.290909 369.36 
L 107.348269 369.220264 
L 117.738254 368.902619 
L 126.991834 368.399413 
L 135.798969 367.698287 
L 144.484347 366.783073 
L 153.250896 365.634903 
L 162.342132 364.218022 
L 172.001571 362.484134 
L 182.594485 360.351905 
L 194.85142 357.650556 
L 211.166942 353.809166 
L 247.653645 345.153984 
L 261.452843 342.156259 
L 273.669192 339.726873 
L 285.073824 337.683477 
L 296.03201 335.94496 
L 306.706096 334.475556 
L 317.258424 333.246451 
L 327.810752 332.241208 
L 338.444252 331.452404 
L 349.199509 330.877732 
L 360.198282 330.513102 
L 371.521741 330.360939 
L 383.291646 330.426794 
L 395.589166 330.719516 
L 408.617233 331.254397 
L 422.578774 332.053373 
L 437.798478 333.15127 
L 454.763375 334.602808 
L 474.528697 336.524507 
L 498.109091 339.034697 
L 498.109091 339.034697 
" clip-path="url(#p8903bf59f7)" style="fill: none; stroke: #bcbd22; stroke-width: 1.5; stroke-linecap: square"/>
   </g>
   <g id="patch_3">
    <path d="M 72 384.48 
L 72 51.84 
" style="fill: none; stroke: #000000; stroke-width: 0.8; stroke-linejoin: miter; stroke-linecap: square"/>
   </g>
   <g id="patch_4">
    <path d="M 518.4 384.48 
L 518.4 51.84 
" style="fill: none; stroke: #000000; stroke-width: 0.8; stroke-linejoin: miter; stroke-linecap: square"/>
   </g>
   <g id="patch_5">
    <path d="M 72 384.48 
L 518.4 384.48 
" style="fill: none; stroke: #000000; stroke-width: 0.8; stroke-linejoin: miter; stroke-linecap: square"/>
   </g>
   <g id="patch_6">
    <path d="M 72 51.84 
L 518.4 51.84 
" style="fill: none; stroke: #000000; stroke-width: 0.8; stroke-linejoin: miter; stroke-linecap: square"/>
   </g>
   <g id="legend_1">
    <g id="patch_7">
     <path d="M 448.670312 191.943125 
L 511.4 191.943125 
Q 513.4 191.943125 513.4 189.943125 
L 513.4 58.84 
Q 513.4 56.84 511.4 56.84 
L 448.670312 56.84 
Q 446.670312 56.84 446.670312 58.84 
L 446.670312 189.943125 
Q 446.670312 191.943125 448.670312 191.943125 
z
" style="fill: #ffffff; opacity: 0.8; stroke: #cccccc; stroke-linejoin: miter"/>
    </g>
    <g id="line2d_40">
     <path d="M 450.670312 64.938437 
L 460.670312 64.938437 
L 470.670312 64.938437 
" style="fill: none; stroke: #1f77b4; stroke-width: 1.5; stroke-linecap: square"/>
    </g>
    <g id="text_16">
     <!-- dof=1 -->
     <g transform="translate(478.670312 68.438437) scale(0.1 -0.1)">
      <defs>
       <path id="DejaVuSans-64" d="M 2906 2969 
L 2906 4863 
L 3481 4863 
L 3481 0 
L 2906 0 
L 2906 525 
Q 2725 213 2448 61 
Q 2172 -91 1784 -91 
Q 1150 -91 751 415 
Q 353 922 353 1747 
Q 353 2572 751 3078 
Q 1150 3584 1784 3584 
Q 2172 3584 2448 3432 
Q 2725 3281 2906 2969 
z
M 947 1747 
Q 947 1113 1208 752 
Q 1469 391 1925 391 
Q 2381 391 2643 752 
Q 2906 1113 2906 1747 
Q 2906 2381 2643 2742 
Q 2381 3103 1925 3103 
Q 1469 3103 1208 2742 
Q 947 2381 947 1747 
z
" transform="scale(0.015625)"/>
       <path id="DejaVuSans-6f" d="M 1959 3097 
Q 1497 3097 1228 2736 
Q 959 2375 959 1747 
Q 959 1119 1226 758 
Q 1494 397 1959 397 
Q 2419 397 2687 759 
Q 2956 1122 2956 1747 
Q 2956 2369 2687 2733 
Q 2419 3097 1959 3097 
z
M 1959 3584 
Q 2709 3584 3137 3096 
Q 3566 2609 3566 1747 
Q 3566 888 3137 398 
Q 2709 -91 1959 -91 
Q 1206 -91 779 398 
Q 353 888 353 1747 
Q 353 2609 779 3096 
Q 1206 3584 1959 3584 
z
" transform="scale(0.015625)"/>
       <path id="DejaVuSans-66" d="M 2375 4863 
L 2375 4384 
L 1825 4384 
Q 1516 4384 1395 4259 
Q 1275 4134 1275 3809 
L 1275 3500 
L 2222 3500 
L 2222 3053 
L 1275 3053 
L 1275 0 
L 697 0 
L 697 3053 
L 147 3053 
L 147 3500 
L 697 3500 
L 697 3744 
Q 697 4328 969 4595 
Q 1241 4863 1831 4863 
L 2375 4863 
z
" transform="scale(0.015625)"/>
       <path id="DejaVuSans-3d" d="M 678 2906 
L 4684 2906 
L 4684 2381 
L 678 2381 
L 678 2906 
z
M 678 1631 
L 4684 1631 
L 4684 1100 
L 678 1100 
L 678 1631 
z
" transform="scale(0.015625)"/>
      </defs>
      <use xlink:href="#DejaVuSans-64"/>
      <use xlink:href="#DejaVuSans-6f" x="63.476562"/>
      <use xlink:href="#DejaVuSans-66" x="124.658203"/>
      <use xlink:href="#DejaVuSans-3d" x="159.863281"/>
      <use xlink:href="#DejaVuSans-31" x="243.652344"/>
     </g>
    </g>
    <g id="line2d_41">
     <path d="M 450.670312 79.616562 
L 460.670312 79.616562 
L 470.670312 79.616562 
" style="fill: none; stroke: #ff7f0e; stroke-width: 1.5; stroke-linecap: square"/>
    </g>
    <g id="text_17">
     <!-- dof=2 -->
     <g transform="translate(478.670312 83.116562) scale(0.1 -0.1)">
      <use xlink:href="#DejaVuSans-64"/>
      <use xlink:href="#DejaVuSans-6f" x="63.476562"/>
      <use xlink:href="#DejaVuSans-66" x="124.658203"/>
      <use xlink:href="#DejaVuSans-3d" x="159.863281"/>
      <use xlink:href="#DejaVuSans-32" x="243.652344"/>
     </g>
    </g>
    <g id="line2d_42">
     <path d="M 450.670312 94.294687 
L 460.670312 94.294687 
L 470.670312 94.294687 
" style="fill: none; stroke: #2ca02c; stroke-width: 1.5; stroke-linecap: square"/>
    </g>
    <g id="text_18">
     <!-- dof=3 -->
     <g transform="translate(478.670312 97.794687) scale(0.1 -0.1)">
      <use xlink:href="#DejaVuSans-64"/>
      <use xlink:href="#DejaVuSans-6f" x="63.476562"/>
      <use xlink:href="#DejaVuSans-66" x="124.658203"/>
      <use xlink:href="#DejaVuSans-3d" x="159.863281"/>
      <use xlink:href="#DejaVuSans-33" x="243.652344"/>
     </g>
    </g>
    <g id="line2d_43">
     <path d="M 450.670312 108.972812 
L 460.670312 108.972812 
L 470.670312 108.972812 
" style="fill: none; stroke: #d62728; stroke-width: 1.5; stroke-linecap: square"/>
    </g>
    <g id="text_19">
     <!-- dof=4 -->
     <g transform="translate(478.670312 112.472812) scale(0.1 -0.1)">
      <use xlink:href="#DejaVuSans-64"/>
      <use xlink:href="#DejaVuSans-6f" x="63.476562"/>
      <use xlink:href="#DejaVuSans-66" x="124.658203"/>
      <use xlink:href="#DejaVuSans-3d" x="159.863281"/>
      <use xlink:href="#DejaVuSans-34" x="243.652344"/>
     </g>
    </g>
    <g id="line2d_44">
     <path d="M 450.670312 123.650937 
L 460.670312 123.650937 
L 470.670312 123.650937 
" style="fill: none; stroke: #9467bd; stroke-width: 1.5; stroke-linecap: square"/>
    </g>
    <g id="text_20">
     <!-- dof=5 -->
     <g transform="translate(478.670312 127.150937) scale(0.1 -0.1)">
      <use xlink:href="#DejaVuSans-64"/>
      <use xlink:href="#DejaVuSans-6f" x="63.476562"/>
      <use xlink:href="#DejaVuSans-66" x="124.658203"/>
      <use xlink:href="#DejaVuSans-3d" x="159.863281"/>
      <use xlink:href="#DejaVuSans-35" x="243.652344"/>
     </g>
    </g>
    <g id="line2d_45">
     <path d="M 450.670312 138.329062 
L 460.670312 138.329062 
L 470.670312 138.329062 
" style="fill: none; stroke: #8c564b; stroke-width: 1.5; stroke-linecap: square"/>
    </g>
    <g id="text_21">
     <!-- dof=6 -->
     <g transform="translate(478.670312 141.829062) scale(0.1 -0.1)">
      <use xlink:href="#DejaVuSans-64"/>
      <use xlink:href="#DejaVuSans-6f" x="63.476562"/>
      <use xlink:href="#DejaVuSans-66" x="124.658203"/>
      <use xlink:href="#DejaVuSans-3d" x="159.863281"/>
      <use xlink:href="#DejaVuSans-36" x="243.652344"/>
     </g>
    </g>
    <g id="line2d_46">
     <path d="M 450.670312 153.007187 
L 460.670312 153.007187 
L 470.670312 153.007187 
" style="fill: none; stroke: #e377c2; stroke-width: 1.5; stroke-linecap: square"/>
    </g>
    <g id="text_22">
     <!-- dof=7 -->
     <g transform="translate(478.670312 156.507187) scale(0.1 -0.1)">
      <use xlink:href="#DejaVuSans-64"/>
      <use xlink:href="#DejaVuSans-6f" x="63.476562"/>
      <use xlink:href="#DejaVuSans-66" x="124.658203"/>
      <use xlink:href="#DejaVuSans-3d" x="159.863281"/>
      <use xlink:href="#DejaVuSans-37" x="243.652344"/>
     </g>
    </g>
    <g id="line2d_47">
     <path d="M 450.670312 167.685312 
L 460.670312 167.685312 
L 470.670312 167.685312 
" style="fill: none; stroke: #7f7f7f; stroke-width: 1.5; stroke-linecap: square"/>
    </g>
    <g id="text_23">
     <!-- dof=8 -->
     <g transform="translate(478.670312 171.185312) scale(0.1 -0.1)">
      <use xlink:href="#DejaVuSans-64"/>
      <use xlink:href="#DejaVuSans-6f" x="63.476562"/>
      <use xlink:href="#DejaVuSans-66" x="124.658203"/>
      <use xlink:href="#DejaVuSans-3d" x="159.863281"/>
      <use xlink:href="#DejaVuSans-38" x="243.652344"/>
     </g>
    </g>
    <g id="line2d_48">
     <path d="M 450.670312 182.363437 
L 460.670312 182.363437 
L 470.670312 182.363437 
" style="fill: none; stroke: #bcbd22; stroke-width: 1.5; stroke-linecap: square"/>
    </g>
    <g id="text_24">
     <!-- dof=9 -->
     <g transform="translate(478.670312 185.863437) scale(0.1 -0.1)">
      <defs>
       <path id="DejaVuSans-39" d="M 703 97 
L 703 672 
Q 941 559 1184 500 
Q 1428 441 1663 441 
Q 2288 441 2617 861 
Q 2947 1281 2994 2138 
Q 2813 1869 2534 1725 
Q 2256 1581 1919 1581 
Q 1219 1581 811 2004 
Q 403 2428 403 3163 
Q 403 3881 828 4315 
Q 1253 4750 1959 4750 
Q 2769 4750 3195 4129 
Q 3622 3509 3622 2328 
Q 3622 1225 3098 567 
Q 2575 -91 1691 -91 
Q 1453 -91 1209 -44 
Q 966 3 703 97 
z
M 1959 2075 
Q 2384 2075 2632 2365 
Q 2881 2656 2881 3163 
Q 2881 3666 2632 3958 
Q 2384 4250 1959 4250 
Q 1534 4250 1286 3958 
Q 1038 3666 1038 3163 
Q 1038 2656 1286 2365 
Q 1534 2075 1959 2075 
z
" transform="scale(0.015625)"/>
      </defs>
      <use xlink:href="#DejaVuSans-64"/>
      <use xlink:href="#DejaVuSans-6f" x="63.476562"/>
      <use xlink:href="#DejaVuSans-66" x="124.658203"/>
      <use xlink:href="#DejaVuSans-3d" x="159.863281"/>
      <use xlink:href="#DejaVuSans-39" x="243.652344"/>
     </g>
    </g>
   </g>
  </g>
 </g>
 <defs>
  <clipPath id="p8903bf59f7">
   <rect x="72" y="51.84" width="446.4" height="332.64"/>
  </clipPath>
 </defs>
</svg>
