<svg xmlns="http://www.w3.org/2000/svg" xmlns:xlink="http://www.w3.org/1999/xlink" version="1.1" width="29.26pt" height="12.62pt" viewBox="0 0 29.26 12.62">
<defs>
<clipPath id="clip_1">
<path transform="matrix(1,0,0,-1,.9229965,7.467003)" d="M-.92316-5.15273V7.47148H28.34009V-5.15273ZM28.34009 7.47148"/>
</clipPath>
<path id="font_2_104" d="M.68499758 .45214845 .66600039 .6767578H.054992677L.035995485 .45214845H.06098938C.07499695 .6128235 .08999634 .64575198 .24099732 .64575198 .25898744 .64575198 .2849884 .64575198 .29499818 .64375308 .31599427 .6397705 .31599427 .6287842 .31599427 .60583499V.07901001C.31599427 .04499817 .31599427 .0309906 .21099854 .0309906H.17098999V0C.21199036 .0029907227 .31399537 .0029907227 .3600006 .0029907227 .4059906 .0029907227 .5089874 .0029907227 .5499878 0V.0309906H.5099945C.40499879 .0309906 .40499879 .04499817 .40499879 .07901001V.60583499C.40499879 .62579348 .40499879 .6397705 .4229889 .64375308 .43399049 .64575198 .46099855 .64575198 .47999574 .64575198 .6309967 .64575198 .6459961 .6128235 .6599884 .45214845H.68499758Z"/>
<path id="font_2_66" d="M.24699402 0V.0309906C.18099976 .0309906 .1769867 .035995485 .1769867 .075042728V.4423828L.036987306 .43066407V.3996582C.101989749 .3996582 .11099243 .3936615 .11099243 .3447113V.07595825C.11099243 .0309906 .099990848 .0309906 .032989503 .0309906V0L.14299011 .0029907227C.17799378 .0029907227 .21299744 .0009918213 .24699402 0M.19198609 .603775C.19198609 .6307678 .16899109 .6567688 .13899231 .6567688 .10499573 .6567688 .084991458 .6287689 .084991458 .603775 .084991458 .57676699 .10798645 .55078127 .13798523 .55078127 .17199707 .55078127 .19198609 .5787811 .19198609 .603775Z"/>
<path id="font_3_70" d="M.48399354 .14323426C.48399354 .15322876 .47599793 .15322876 .46899415 .15322876 .45700074 .15322876 .45599366 .15223694 .44999696 .13023377 .43699647 .07923889 .41799928 .011245728 .37399293 .011245728 .34700013 .011245728 .34498597 .034240724 .34498597 .054244996 .34498597 .07723999 .35198976 .10523987 .35299684 .11024475 .35798646 .13124085 .35798646 .13223267 .35798646 .14523316 .35798646 .21322632 .28799439 .24023438 .22499085 .2492218 .24798584 .26322938 .2689972 .28422547 .29599 .31521607 .34799195 .3742218 .3869934 .42037965 .43699647 .42037965 .45599366 .42037965 .46398927 .40823365 .46398927 .40823365 .42199708 .4012146 .4169922 .3662262 .4169922 .35821534 .4169922 .34521485 .42599488 .32621766 .45199586 .32621766 .47399903 .32621766 .5019989 .34422303 .5019989 .3822174 .5019989 .40823365 .48399354 .4423828 .43899537 .4423828 .38598634 .4423828 .34298707 .40022279 .30899049 .36021424 .2519989 .29421998 .23599243 .27822877 .20098877 .26123048L.30299378 .6693268C.3039856 .67233279 .30599977 .6823273 .30599977 .6823273 .30599977 .69132998 .2999878 .69433596 .2919922 .69433596 .2889862 .69433596 .2789917 .69332888 .27598573 .6923218L.1769867 .6843262C.16499329 .68333438 .1539917 .6823273 .1539917 .6633301 .1539917 .6523285 .1639862 .6523285 .17799378 .6523285 .22599793 .6523285 .22799683 .6453247 .22799683 .6353302 .22799683 .6323395 .22499085 .6183319 .22499085 .6183319L.07699585 .028244019C.07598877 .026245118 .07499695 .01524353 .07499695 .01524353 .07499695 .004257202 .083999637-.0107421879 .102996829-.0107421879 .1329956-.0107421879 .13999939 .017242432 .14199829 .026245118L.19299317 .22923279C.22999573 .2242279 .2939911 .20323181 .2939911 .14523316 .2939911 .13824463 .2939911 .13423157 .29100038 .12023926 .2869873 .10324097 .2869873 .09623718 .2869873 .086242679 .2869873 .014251709 .33399964-.0107421879 .37098695-.0107421879 .4149933-.0107421879 .43699647 .022247315 .44799806 .041244508 .46998597 .07923889 .48399354 .14024353 .48399354 .14323426Z"/>
<path id="font_2_119" d="M.55999758 .2668457H.5349884C.5269928 .12792969 .5079956 .033996583 .32299806 .033996583H.15899658L.5469971 .6476135C.55400088 .6586151 .55400088 .65960696 .55400088 .6666107 .55400088 .6826172 .5479889 .6826172 .5279999 .6826172H.07998657L.068984989 .45773316H.09399414C.100997928 .57066348 .1309967 .6516113 .29499818 .6516113H.45199586L.06298828 .036987306C.055999757 .025985718 .055999757 .024993897 .055999757 .016998291 .055999757 0 .06098938 0 .08198547 0H.54299929L.55999758 .2668457Z"/>
</defs>
<g clip-path="url(#clip_1)">
<path transform="matrix(1,0,0,-1,.9229965,7.467003)" stroke-width=".59776" stroke-linecap="round" stroke-miterlimit="10" stroke-linejoin="miter" fill="none" stroke="#515151" d="M0-4.29395V4.29395C3.86452 4.72336 3.86452-.4294 0 0M4.29395 4.29395C4.29395 0 4.29395 0 7.2997 0M7.2997 4.29395V0C7.2997-4.29395 7.2997-4.29395 4.29395-4.29395M7.72911 0"/>
<use data-text="T" xlink:href="#font_2_104" transform="matrix(9.9626,0,0,-9.9626,8.652,7.467003)" fill="#515151"/>
<use data-text="i" xlink:href="#font_2_66" transform="matrix(9.9626,0,0,-9.9626,15.844997,7.467003)" fill="#515151"/>
<use data-text="k" xlink:href="#font_3_70" transform="matrix(9.9626,0,0,-9.9626,18.615006,7.467003)" fill="#ff8000"/>
<use data-text="Z" xlink:href="#font_2_119" transform="matrix(9.9626,0,0,-9.9626,23.198006,7.467003)" fill="#515151"/>
<path transform="matrix(1,0,0,-1,.9229965,7.467003)" d="M.24907-4.29395C.24907-4.1564 .13754-4.04488 0-4.04488-.13754-4.04488-.24907-4.1564-.24907-4.29395-.24907-4.43149-.13754-4.54301 0-4.54301 .13754-4.54301 .24907-4.43149 .24907-4.29395ZM.24907 4.29395C.24907 4.43149 .13754 4.54301 0 4.54301-.13754 4.54301-.24907 4.43149-.24907 4.29395-.24907 4.1564-.13754 4.04488 0 4.04488 .13754 4.04488 .24907 4.1564 .24907 4.29395ZM.24907 0C.24907 .13754 .13754 .24907 0 .24907-.13754 .24907-.24907 .13754-.24907 0-.24907-.13754-.13754-.24907 0-.24907 .13754-.24907 .24907-.13754 .24907 0ZM4.54301 4.29395C4.54301 4.43149 4.43149 4.54301 4.29395 4.54301 4.1564 4.54301 4.04488 4.43149 4.04488 4.29395 4.04488 4.1564 4.1564 4.04488 4.29395 4.04488 4.43149 4.04488 4.54301 4.1564 4.54301 4.29395ZM7.54877 0C7.54877 .13754 7.43724 .24907 7.2997 .24907 7.16214 .24907 7.05063 .13754 7.05063 0 7.05063-.13754 7.16214-.24907 7.2997-.24907 7.43724-.24907 7.54877-.13754 7.54877 0ZM7.54877 4.29395C7.54877 4.43149 7.43724 4.54301 7.2997 4.54301 7.16214 4.54301 7.05063 4.43149 7.05063 4.29395 7.05063 4.1564 7.16214 4.04488 7.2997 4.04488 7.43724 4.04488 7.54877 4.1564 7.54877 4.29395ZM4.54301-4.29395C4.54301-4.1564 4.43149-4.04488 4.29395-4.04488 4.1564-4.04488 4.04488-4.1564 4.04488-4.29395 4.04488-4.43149 4.1564-4.54301 4.29395-4.54301 4.43149-4.54301 4.54301-4.43149 4.54301-4.29395ZM4.29395-4.29395" fill="#ffffff"/>
<path transform="matrix(1,0,0,-1,.9229965,7.467003)" stroke-width=".09962" stroke-linecap="butt" stroke-miterlimit="10" stroke-linejoin="miter" fill="none" stroke="#000000" d="M.24907-4.29395C.24907-4.1564 .13754-4.04488 0-4.04488-.13754-4.04488-.24907-4.1564-.24907-4.29395-.24907-4.43149-.13754-4.54301 0-4.54301 .13754-4.54301 .24907-4.43149 .24907-4.29395ZM.24907 4.29395C.24907 4.43149 .13754 4.54301 0 4.54301-.13754 4.54301-.24907 4.43149-.24907 4.29395-.24907 4.1564-.13754 4.04488 0 4.04488 .13754 4.04488 .24907 4.1564 .24907 4.29395ZM.24907 0C.24907 .13754 .13754 .24907 0 .24907-.13754 .24907-.24907 .13754-.24907 0-.24907-.13754-.13754-.24907 0-.24907 .13754-.24907 .24907-.13754 .24907 0ZM4.54301 4.29395C4.54301 4.43149 4.43149 4.54301 4.29395 4.54301 4.1564 4.54301 4.04488 4.43149 4.04488 4.29395 4.04488 4.1564 4.1564 4.04488 4.29395 4.04488 4.43149 4.04488 4.54301 4.1564 4.54301 4.29395ZM7.54877 0C7.54877 .13754 7.43724 .24907 7.2997 .24907 7.16214 .24907 7.05063 .13754 7.05063 0 7.05063-.13754 7.16214-.24907 7.2997-.24907 7.43724-.24907 7.54877-.13754 7.54877 0ZM7.54877 4.29395C7.54877 4.43149 7.43724 4.54301 7.2997 4.54301 7.16214 4.54301 7.05063 4.43149 7.05063 4.29395 7.05063 4.1564 7.16214 4.04488 7.2997 4.04488 7.43724 4.04488 7.54877 4.1564 7.54877 4.29395ZM4.54301-4.29395C4.54301-4.1564 4.43149-4.04488 4.29395-4.04488 4.1564-4.04488 4.04488-4.1564 4.04488-4.29395 4.04488-4.43149 4.1564-4.54301 4.29395-4.54301 4.43149-4.54301 4.54301-4.43149 4.54301-4.29395ZM4.29395-4.29395"/>
</g>
</svg>
